<svg xmlns="http://www.w3.org/2000/svg" width="75" height="32" viewBox="0 0 75 32" fill="none">
<path d="M72.6226 20H46.9402C33.455 19.9639 35.6448 1 25.0812 1C14.5177 1 16.7078 19.9639 3.35799 20H1" stroke="#5EB0FC" stroke-width="2" stroke-linecap="round" stroke-linejoin="round"/>
<path d="M1 20H22.7447C26.4173 19.9796 29.2948 19.0727 31.9021 15.9384C33.3963 14.1422 34.7139 12.1624 35.7639 10.0174C36.6031 8.30295 37.0707 6.31543 38.1756 4.76847C39.0344 3.56584 40.9984 3.33004 42.0341 4.3775C43.7205 6.08341 44.3329 12.0852 47.0527 12.2798C49.6343 12.4647 50.3884 6.52068 51.8913 4.77717C54.6062 1.6289 57.1069 5.12413 58.2003 7.89031C60.6141 13.9964 64.8602 19.9998 71.6702 19.9998H74" stroke="#505771" stroke-width="2" stroke-linecap="round" stroke-linejoin="round"/>
<path d="M24.4151 1C14.1644 1 16.2896 20.0614 3.26326 19.9999H1" stroke="#5EB0FC" stroke-width="2" stroke-linecap="round" stroke-linejoin="round"/>
<path d="M7 31.8177H7.74118L8.48235 30.1706H12.1882L12.8471 31.8177H13.5882L10.7059 24.9824H9.96471L7 31.8177ZM10.2941 25.7236L11.9412 29.5941H8.64706L10.2941 25.7236ZM21.7412 31.8177H22.4824V24.9824H21.8235L18.8588 28.6059L15.8118 24.9824H15.1529V31.7353H15.8941V26.053L18.6941 29.4294H18.8588L21.6588 26.053C21.7412 26.053 21.7412 31.8177 21.7412 31.8177V31.8177ZM25.9412 28.4412C25.9412 27.3706 26.6823 26.5471 27.8353 26.5471C28.6588 26.5471 29.2353 26.8765 29.6471 27.2059L30.3882 25.9706C29.6471 25.3118 28.8235 24.9824 27.6706 24.9824C25.6118 24.9824 24.1294 26.4647 24.1294 28.4412C24.1294 30.4177 25.6941 31.9 27.6706 31.9C28.7412 31.9 29.6471 31.5706 30.3882 30.9118L29.7294 29.6765C29.3176 30.0059 28.7412 30.3353 27.9176 30.3353C26.7647 30.3353 25.9412 29.4294 25.9412 28.4412V28.4412ZM36.8941 31.8177H38.6235V24.9824H36.8941V27.6177H33.6823V24.9824H31.9529V31.7353H33.6823V29.1H36.8941V31.8177ZM39.7765 31.8177H41.5059L42 30.5824H44.8L45.2118 31.8177H46.9412L44.3882 25.0647H42.4118C42.4118 24.9824 39.7765 31.8177 39.7765 31.8177ZM43.4 26.7118L44.3882 29.3471H42.4118C42.3294 29.3471 43.4 26.7118 43.4 26.7118V26.7118ZM48.0941 31.8177H49.8235V29.4294H50.5647L52.6235 31.8177H54.4353V31.4883L52.4588 29.2647C53.3647 29.0177 54.1059 28.2765 54.1059 27.2059C54.1059 25.7236 53.0353 24.9 51.4706 24.9H48.1765L48.0941 31.8177V31.8177ZM51.3059 26.4647C51.8823 26.4647 52.2118 26.7118 52.2118 27.2883C52.2118 27.7824 51.8823 28.1118 51.3059 28.1118H49.8235V26.3824L51.3059 26.4647ZM60.7765 26.4647V24.9824H55.0118V26.4647H57.0706V31.8177H58.8V26.4647H60.7765ZM61.9294 31.3236C62.3412 31.5706 63.4118 31.9 64.4 31.9C66.1294 31.9 67.2 30.9941 67.2 29.6765C67.2 28.7706 66.6235 28.1118 65.3882 27.7824L64.2353 27.453C63.8235 27.2883 63.5765 27.2059 63.5765 26.8765C63.5765 26.5471 63.8235 26.3 64.4823 26.3C65.2235 26.3 65.9647 26.5471 66.5412 26.8765L67.0353 25.4765C66.4588 25.2294 65.5529 24.9824 64.5647 24.9824C62.7529 24.9824 61.847 25.8883 61.847 27.0412C61.847 27.9471 62.4235 28.6059 63.5765 28.853L64.7294 29.1824C65.3059 29.3471 65.4706 29.4294 65.4706 29.8412C65.4706 30.253 65.0588 30.5 64.4 30.5C63.5765 30.5 62.7529 30.1706 62.2588 29.7588L61.9294 31.3236V31.3236Z" fill="#9cabe2"/>
</svg>